<?xml version="1.0" encoding="iso-8859-1"?>
<!-- Generator: Adobe Illustrator 19.0.0, SVG Export Plug-In . SVG Version: 6.00 Build 0)  -->
<svg xmlns="http://www.w3.org/2000/svg" xmlns:xlink="http://www.w3.org/1999/xlink" version="1.1" id="Layer_1" x="0px" y="0px" viewBox="0 0 512.079 512.079" style="enable-background:new 0 0 512.079 512.079;" xml:space="preserve" width="512" height="512">
<g>
	<ellipse style="fill:#407FFF;" cx="256.039" cy="256.039" rx="248.5" ry="248.539"/>
	<path style="fill:#406AEF;" d="M389.155,46.141c45.007,44.982,72.848,107.142,72.848,175.806   c0,137.264-111.257,248.539-248.5,248.539c-48.974,0-94.634-14.178-133.115-38.641c44.965,44.94,107.063,72.733,175.652,72.733   c137.243,0,248.5-111.275,248.5-248.539C504.539,167.757,458.512,90.233,389.155,46.141z"/>
	<g>
		<path style="fill:#48D8FF;" d="M199.636,381.021h-43.745c-7.658,0-13.866-6.208-13.866-13.866V235.813    c0-7.658,6.208-13.866,13.866-13.866h43.745c7.658,0,13.866,6.208,13.866,13.866v131.342    C213.502,374.813,207.294,381.021,199.636,381.021z"/>
		<path style="fill:#43C5FF;" d="M199.637,354.897H155.89c-7.657,0-13.865-6.209-13.865-13.867v26.124    c0,7.659,6.208,13.867,13.865,13.867h43.747c7.657,0,13.865-6.208,13.865-13.867v-26.124    C213.502,348.688,207.295,354.897,199.637,354.897z"/>
		<path style="fill:#E3FAFF;" d="M370.054,247.436L370.054,247.436c0-13.532-10.969-24.501-24.5-24.501h-34.727    c10.864-27.183,10.818-49.061,10.671-53.614c0.119-0.822,0.183-1.661,0.183-2.516v-1.139c-0.73-23.835-8.027-31.132-17.397-34.609    h0c-9.608,0-17.397,7.79-17.397,17.4v1.738c-0.096,5.958-8.465,18.249-8.465,18.249l-63.843,64.577l-1.076,1.326v13.089v119.347    c0,2.441,1.978,4.419,4.419,4.419h120.191c8.177,0,15.13-5.969,16.366-14.054C359.205,326.239,370.054,254.526,370.054,247.436z"/>
		<g>
			<path style="fill:#CCF4FF;" d="M345.554,222.935h-4.494c-0.23,2.155-0.573,4.978-1.005,8.323     c-8.228,63.633-62.399,111.279-126.552,111.278h0v24.248c0,2.441,1.978,4.42,4.419,4.42l120.193,0     c8.176,0,15.127-5.963,16.363-14.046c4.726-30.906,15.576-102.63,15.576-109.72C370.053,233.904,359.085,222.935,345.554,222.935     z"/>
		</g>
	</g>
</g>
<g>
	<path d="M448.924,87.689C408.615,41.528,353.186,11.32,292.847,2.628c-4.097-0.59-7.902,2.254-8.493,6.354s2.254,7.902,6.354,8.493   c56.79,8.181,108.966,36.621,146.917,80.081c38.313,43.875,59.414,100.159,59.414,158.484c0,64.384-25.068,124.915-70.588,170.441   c-45.519,45.526-106.039,70.598-170.412,70.598c-63.271,0-123.048-24.337-168.318-68.529c-2.964-2.895-7.713-2.836-10.605,0.128   c-2.894,2.964-2.836,7.712,0.128,10.605c48.088,46.943,111.586,72.795,178.796,72.795c68.38,0,132.667-26.633,181.02-74.993   c48.352-48.359,74.98-112.656,74.98-181.046C512.039,194.085,489.625,134.297,448.924,87.689z"/>
	<path d="M15.039,256.04c0-64.384,25.068-124.915,70.588-170.441C131.146,40.072,191.666,15,256.039,15c4.142,0,7.5-3.358,7.5-7.5   s-3.358-7.5-7.5-7.5c-68.38,0-132.667,26.633-181.02,74.993C26.668,123.352,0.039,187.649,0.039,256.04   c0,55.57,17.5,108.427,50.609,152.858c1.472,1.976,3.731,3.019,6.02,3.019c1.558,0,3.13-0.484,4.476-1.486   c3.321-2.475,4.007-7.174,1.532-10.496C31.512,358.113,15.039,308.355,15.039,256.04z"/>
	<path d="M199.636,214.447h-43.745c-11.781,0-21.366,9.585-21.366,21.366v131.342c0,11.781,9.585,21.366,21.366,21.366h43.745   c7.533,0,14.154-3.929,17.959-9.835c0.109,0.003,0.216,0.017,0.326,0.017h120.191c11.97,0,21.971-8.588,23.781-20.42   c1.376-9.002,3.272-21.463,5.267-34.781c0.614-4.096-2.209-7.915-6.306-8.528c-4.098-0.613-7.915,2.209-8.528,6.306   c-1.993,13.301-3.886,25.746-5.261,34.736c-0.681,4.455-4.446,7.688-8.953,7.688h-117.11V237.192l62.752-63.474   c0.32-0.324,0.61-0.676,0.866-1.052c2.26-3.319,9.642-14.738,9.765-22.349c0-0.041,0.001-0.081,0.001-0.121v-1.738   c0-5.049,3.799-9.228,8.688-9.827c4.41,1.843,10.443,6.153,11.107,27.152v1.021c0,0.471-0.036,0.956-0.106,1.443   c-0.063,0.435-0.087,0.875-0.073,1.313c0.125,3.897,0.226,24.654-10.14,50.589c-0.923,2.311-0.641,4.929,0.754,6.989   c1.396,2.06,3.722,3.294,6.21,3.294h34.727c9.374,0,17,7.627,17,17c-0.005,1.203-0.545,7.653-5.447,41.476   c-0.594,4.099,2.248,7.904,6.347,8.498c4.104,0.592,7.905-2.248,8.498-6.347c5.603-38.656,5.603-42.139,5.603-43.626   c0-17.646-14.355-32.001-32-32.001h-24.039c7.245-22.279,7.635-39.657,7.497-45.732c0.113-0.968,0.17-1.939,0.17-2.897v-1.139   c0-0.077-0.001-0.153-0.003-0.229c-0.71-23.185-7.583-35.957-22.285-41.411c-0.835-0.31-1.718-0.468-2.609-0.468   c-13.729,0-24.897,11.17-24.897,24.9v1.62c-0.145,2.035-3.325,8.376-6.795,13.596l-57.152,57.81   C211.527,217.174,205.901,214.447,199.636,214.447z M206.002,367.155c0,3.51-2.855,6.366-6.366,6.366h-43.745   c-3.51,0-6.366-2.856-6.366-6.366V235.813c0-3.51,2.856-6.366,6.366-6.366h43.745c3.51,0,6.366,2.856,6.366,6.366v130.97V367.155z"/>
</g>















</svg>
