<svg id="Capa_1" enable-background="new 0 0 512 512" height="512" viewBox="0 0 512 512" width="512" xmlns="http://www.w3.org/2000/svg"><g><g><path d="m306.826 179.592c0 9.409-7.628 17.037-17.037 17.037s-17.037-7.628-17.037-17.037c0-13.098 17.037-31.698 17.037-31.698s17.037 18.511 17.037 31.698z" fill="#fffbdf"/><g><g><path d="m62.998 94.221c-9.488-9.488-24.87-9.488-34.357 0l-.227.227c-9.488 9.488-9.488 24.87 0 34.358l33.026 33.026 34.585-34.585z" fill="#ff9c9b"/><path d="m75.398 135.79h48.91v59.742h-48.91z" fill="#ff7b79" transform="matrix(.707 -.707 .707 .707 -87.894 119.128)"/></g><g><g><path d="m332.359 292.116h-205.107v58.943c0 57.54 46.645 104.185 104.185 104.185h150.779c57.54 0 104.185-46.645 104.185-104.185v-58.943h-63.63" fill="#ffad95"/></g><path d="m390.502 502v-9.449c0-20.604-16.703-37.307-37.307-37.307h-92.737c-20.604 0-37.307 16.703-37.307 37.307v9.449z" fill="#ff9171"/><path d="m182.835 292.116v80.406c0 11.94 9.679 21.619 21.619 21.619 11.94 0 21.619-9.679 21.619-21.619v-15.216c0 11.94 9.679 21.619 21.619 21.619 11.94 0 21.619-9.679 21.619-21.619v-65.19z" fill="#fff7bf"/></g></g><g><path d="m397.45 10-64.223 64.223 131.252 2.806z" fill="#ccf5fc"/><g><path d="m464.479 77.029-131.252-2.806-34.409 34.409 32.185 14.456 62.72 62.72c9.637 9.637 25.261 9.637 34.898 0l54.87-54.87c9.637-9.637 9.637-25.261 0-34.898z" fill="#fffbdf"/></g></g></g><g><path d="m377.748 302.12c-4.181 0-7.996-2.711-9.405-6.636-1.39-3.872-.204-8.326 2.936-10.991 3.274-2.777 8.099-3.137 11.746-.869 3.501 2.176 5.322 6.407 4.523 10.445-.913 4.614-5.095 8.051-9.8 8.051z"/><path d="m486.401 282.116h-63.63c-5.523 0-10 4.478-10 10s4.477 10 10 10h53.63v48.942c0 51.935-42.251 94.186-94.185 94.186h-150.779c-51.934 0-94.185-42.251-94.185-94.186v-48.942h35.583v70.406c0 17.435 14.184 31.619 31.619 31.619 12.83 0 23.898-7.68 28.852-18.684 4.318 2.216 9.209 3.467 14.387 3.467 17.435 0 31.619-14.185 31.619-31.619v-55.189h53.047c5.523 0 10-4.478 10-10s-4.477-10-10-10h-20.5c-6.972-12.793-16.052-24.822-27.046-35.815-20.18-20.18-44.336-34.165-68.02-39.381-21.135-4.656-39.926-1.971-54.018 7.521l-27.657-27.657 10.221-10.221c3.905-3.905 3.905-10.237 0-14.143l-75.27-75.271c-6.478-6.477-15.089-10.044-24.25-10.044s-17.772 3.567-24.25 10.044l-.228.228c-6.477 6.478-10.044 15.09-10.044 24.25s3.567 17.772 10.044 24.25l75.27 75.271c1.953 1.952 4.512 2.929 7.071 2.929s5.119-.977 7.071-2.929l10.221-10.221 27.656 27.656c-9.491 14.076-12.158 32.765-7.643 53.534h-13.737c-5.523 0-10 4.478-10 10v58.942c0 59.825 46.246 109.052 104.866 113.809-5.64 7.788-8.968 17.354-8.968 27.684v9.448c0 5.522 4.477 10 10 10h167.352c5.523 0 10-4.478 10-10v-9.449c0-10.329-3.328-19.895-8.968-27.684 58.62-4.757 104.867-53.984 104.867-113.809v-58.942c.002-5.522-4.475-10-9.998-10zm-450.916-180.596.228-.228c2.787-2.787 6.447-4.181 10.107-4.181s7.321 1.394 10.107 4.181l25.955 25.955-20.443 20.443-25.955-25.955c-5.573-5.574-5.573-14.642.001-20.215zm68.198 88.414-28.102-28.101 20.443-20.443 28.102 28.102zm90.747 57.849c13.006 8.485 27.785 20.518 42.222 34.333h-38.448c-19.755-24.016-26.951-39.774-28.089-46.15 3.748.695 11.56 3.497 24.315 11.817zm64.882 109.523c0 6.407-5.212 11.619-11.619 11.619s-11.619-5.212-11.619-11.619c0-5.522-4.477-10-10-10s-10 4.478-10 10v15.217c0 6.407-5.212 11.619-11.62 11.619-6.407 0-11.619-5.212-11.619-11.619v-70.406h66.477zm11.358-96.863c6.716 6.716 12.736 14.051 17.819 21.673h-23.629c-2.553-2.693-5.175-5.386-7.826-8.038-19.398-19.398-39.589-35.842-56.852-46.304-1.746-1.058-3.447-2.046-5.103-2.964 22.716-.868 51.991 12.033 75.591 35.633zm-111.676.627c3.839 6.935 8.627 14.083 13.796 21.046h-11.21c-1.992-7.438-2.844-14.54-2.586-21.046zm74.162 230.93c.294-14.804 12.429-26.756 27.302-26.756h92.736c14.874 0 27.008 11.952 27.302 26.756z"/><path d="m294.721 117.755 30.51 13.704 61.421 61.421c6.761 6.761 15.639 10.14 24.52 10.14 8.879 0 17.761-3.381 24.521-10.14l54.87-54.871c13.52-13.521 13.52-35.52 0-49.04l-86.041-86.04c-1.876-1.875-4.419-2.929-7.072-2.929s-5.196 1.054-7.071 2.929l-98.632 98.633c-2.325 2.325-3.358 5.644-2.764 8.878.593 3.233 2.739 5.968 5.738 7.315zm102.729-93.612 42.356 42.356-82.94-1.772zm-60.17 60.17 122.969 2.627 16.171 16.171c5.723 5.722 5.722 15.033 0 20.756l-54.87 54.87c-5.723 5.722-15.035 5.724-20.756 0l-62.72-62.72c-.859-.858-1.867-1.554-2.974-2.051l-18.958-8.516z"/><path d="m289.789 206.629c-14.909 0-27.038-12.129-27.038-27.037 0-16.168 16.38-34.868 19.664-38.453 1.892-2.064 4.562-3.242 7.362-3.245h.012c2.796 0 5.464 1.171 7.358 3.229 3.286 3.57 19.679 22.206 19.679 38.47 0 14.907-12.129 27.036-27.037 27.036zm.019-42.58c-3.833 5.621-7.056 11.725-7.056 15.543 0 3.88 3.157 7.037 7.038 7.037s7.037-3.157 7.037-7.037c-.001-3.867-3.203-9.954-7.019-15.543z"/></g></g></svg>